M48
;Layer_Color=6321
;FILE_FORMAT=2:4
INCH
;TYPE=PLATED
T1F00S00C0.0150
T2F00S00C0.0320
T3F00S00C0.0354
T4F00S00C0.1260
%
T01
X011900Y015000
X012200Y015250
X012450Y015500
X016100Y014750
X017100Y014500
X018100Y014250
X017700Y013000
X017400Y013250
X015750Y013050
X019100Y015000
X020100Y014790
X021100Y014550
X022100Y014300
Y015250
X022500Y015500
X023100
X023700
X024100Y015250
X024700
X025790Y014990
X026100Y013700
X025600Y013250
X025100Y014050
X024700Y013800
X023700
X031000Y014450
X030750Y014710
X030500Y015000
X030250Y015250
X030000Y015500
X031250Y014200
X031490Y013950
X032400Y013880
X032190Y013490
X035950Y015200
X036850Y015450
X044300Y015200
X044100Y013300
Y012900
X045100
Y013300
X047500Y026700
X050000Y028550
X053000Y024350
X059500Y026000
X045600
X045300Y026350
X045000Y025500
X044700Y025000
X044400Y024000
X044100Y023000
X043780Y027520
X043500Y028000
X046200Y029000
X035750Y028850
X036350Y026100
X037000Y025700
X037600
X038000Y019500
X035500
X033850Y017950
X034100Y017700
X033500Y017200
X034500Y016700
X035000Y016200
X035500Y015700
X032400Y015930
X031950Y017200
X031700Y017450
X033000Y018200
X032750Y020000
X032200Y023000
X031950Y023550
X031700Y024010
X031490Y024600
X031250Y025000
X032410Y027550
X039900Y018710
X039700Y018500
X040550Y017950
X041300Y018200
X041800Y017700
X042300Y017200
X042800Y016700
X043300Y016200
X043800Y015700
X029100Y016500
X028100Y016200
X027100Y015750
X025500Y016500
X025200Y016200
X025250Y017750
X022750
X022500Y017450
X022100Y017200
X022750Y016400
X020500Y018400
X020200Y020400
X020500Y022400
X020050Y026500
X017400Y026000
X017700Y024970
X015800Y021900
Y020400
X024193Y019857
X024500Y020100
X027900Y019900
X028300Y022000
X027900Y022500
X026000Y023500
X026300Y025500
X026700Y026500
X027500Y027500
X030000Y028000
X030250Y027000
X030500Y026500
X030750Y026000
X031010Y025640
X025250Y028710
X022700Y030700
X015100Y022900
X014450Y022700
X015100Y018400
Y017900
X014850Y017300
X012700Y016900
X009050Y015750
X007250Y018250
Y020250
Y022250
Y024250
X016100Y033220
X020050Y033000
X020300Y034300
X019000Y035450
X021200Y036900
X022250Y036750
X024700Y037250
X024600Y039750
Y040500
X024250
X023800Y039750
X023750Y042000
X024250Y044250
X026500Y043250
Y042750
X026250Y041250
Y040750
X027400Y040250
X027900
X027950Y039750
X030000Y040750
Y041250
Y042750
Y043250
X027100Y037500
X027000Y036750
X026400Y036150
X026700Y032590
X026300Y032300
X026000Y032100
X027500Y032800
X029350Y033500
X020600Y031500
X019850Y039300
X021200Y039550
X018350Y039750
X017750Y040250
X018000Y043250
X018350Y044250
X032750Y035500
X034950Y036100
X035850Y036150
X035500Y037500
X034950Y037050
X035500Y034600
X037100
X038100Y034300
X040400Y034800
X041900
X043000Y034750
X043250Y034500
Y033220
X042700Y032800
X043000Y031950
X043780Y035950
X044100Y036600
X044000Y038450
X044400Y038500
X044700Y038950
X044400Y039500
X045000Y039900
X044700Y040500
X045300Y041000
X045600Y041500
X043780Y043100
X043500Y043500
Y038150
X042700Y038000
X041700Y037000
X045600Y035500
X045300Y035050
X046200Y034100
X046500Y033800
X037500Y039050
X037200Y039450
X047550Y040150
X047335Y040450
X052000Y040850
X049700Y036350
X049000Y032700
X048500Y032400
X050000Y031600
X052480Y034520
X053500Y033500
X056000Y036350
X057500Y039200
X058000Y038950
X060550Y033000
T02
X048000Y026000
X049000
X050000
X051000
X052000
X053000
X054000
X055000
X056000
X057000
X058000
Y027000
Y028000
Y029000
Y030000
Y031000
X059000
Y030000
Y029000
Y028000
Y027000
X057000
X056000
X055000
X054000
X053000
X052000
X051000
X050000
X049000
X048000
X047000
Y028000
X048000
Y029000
X047000
Y030000
X048000
Y031000
X047000
X040500Y028000
X039500
X038500
Y027000
X039500
X040500
X041500
Y026000
X040500
Y025000
X041500
Y024000
X040500
Y023000
X041500
Y022000
X040500
Y021000
X041500
X040500Y020000
X039500
Y021000
X038500
Y020000
X037500
Y021000
X036500
Y020000
X035500
Y021000
X034500
Y020000
X033500Y021000
Y022000
X034500
Y023000
X033500
Y024000
X034500
Y025000
X033500
Y026000
X034500
Y027000
X033500
X034500Y028000
X035500
Y027000
X036500
Y028000
X037500
Y027000
Y035500
X038500
X039500
X040500
Y036500
Y037500
Y038500
Y039500
Y040500
Y041500
Y042500
X039500
X038500
Y043500
X039500
X040500
X041500Y042500
Y041500
Y040500
Y039500
Y038500
Y037500
Y036500
X039500
X038500
X037500
X036500
Y035500
X035500
Y036500
X034500
Y035500
X033500Y036500
Y037500
X034500
Y038500
X033500
Y039500
X034500
Y040500
X033500
Y041500
X034500
Y042500
X033500
X034500Y043500
X035500
Y042500
X036500
Y043500
X037500
Y042500
X047000Y037000
Y036000
Y035000
Y034000
Y033000
Y032000
X048000
Y033000
Y034000
Y035000
Y036000
Y037000
Y038000
X049000
Y037000
X050000
Y038000
X051000
Y037000
X052000
Y038000
X053000
X054000
Y037000
X055000
Y038000
X056000
Y037000
X057000
Y038000
X058000
Y037000
X059000
Y036000
X058000
Y035000
X059000
Y034000
X058000
Y033000
X059000
Y032000
X058000
X053000Y037000
T03
X037950Y029550
X038950
X029500Y029500
Y030500
Y028500
Y027500
Y026500
Y025500
Y024500
Y023500
Y022500
Y021500
Y020500
Y019500
Y018500
X023500
Y019500
Y020500
Y021500
Y022500
Y023500
Y024500
Y025500
Y026500
Y027500
Y028500
Y029500
Y030500
X021550
Y029500
Y028500
Y027500
Y026500
Y025500
X018550
Y026500
Y027500
Y028500
Y029500
Y030500
X016500
Y029500
Y028500
Y027500
Y026500
Y025000
Y023400
Y022400
Y021400
Y020400
Y019400
Y018400
Y017400
Y016400
X018500
Y017400
Y018400
Y019400
Y020400
Y021400
Y022400
X018550Y024200
X019550
X021500Y022400
Y021400
Y020400
Y019400
Y018400
Y017400
Y016400
X023500Y016800
X024500
X022500Y021400
Y022400
X013500
Y023400
X011500
Y024400
Y025400
Y027000
X010500
X013500Y027500
Y028500
Y029500
Y030500
Y026500
X015500Y025000
X013500Y021400
Y020400
Y019400
Y018400
Y017400
Y016400
X011500
Y017400
Y018400
Y019400
Y020400
Y021400
Y022400
X008500
Y023400
Y024400
Y025400
Y021400
Y020400
Y019400
Y018400
Y017400
Y016400
X013500Y031500
Y032500
X015500Y034000
Y040000
Y042000
Y044000
X013000
X012000
Y043000
X013000
Y042000
X012000
Y041000
X013000
Y040000
X012000
Y039000
X013000
X010500Y040001
Y040900
Y041800
Y042700
Y043599
X009500Y043149
Y042250
Y041350
Y040451
Y039551
X008500Y040001
Y040900
Y041800
Y042700
Y043599
X016500Y044000
Y042000
Y040000
X018900Y038300
Y037300
X020700Y038300
X021700
X022700
X023700
X024700
X025700
X026700
X027700
Y035300
X026700
X025700
X024700
X023700
X022700
X021700
X020700
X021550Y032500
Y031500
X023500
X018550
Y032500
X016500
Y031500
Y034000
X029500Y031500
X029000Y045250
X028000
X022850
X021850
X038000Y045200
X039000
X051000Y044950
Y041950
X054000
Y044950
Y046750
X053000
X057050Y046050
Y045050
Y044050
Y043050
Y042050
X058050
Y043050
Y044050
Y045050
Y046050
X060000Y046000
X061000
Y044000
X060000
T04
X009500Y036776
Y046623
M30
