G04 Layer_Color=13813960*
%FSAX24Y24*%
%MOIN*%
G70*
G01*
G75*
%ADD13C,0.0100*%
D13*
X049050Y036200D02*
Y036500D01*
X052850Y025100D02*
X053150D01*
X046050Y029750D02*
X046350D01*
X049850Y027900D02*
X050150D01*
X058850Y025850D02*
Y026150D01*
X059850Y032850D02*
Y033150D01*
X056750Y036200D02*
Y036500D01*
X035600Y025560D02*
X035800D01*
X035700D01*
Y025060D01*
X035800Y024960D01*
X035900D01*
X036000Y025060D01*
X035400D02*
X035300Y024960D01*
X035100D01*
X035000Y025060D01*
Y025460D01*
X035100Y025560D01*
X035300D01*
X035400Y025460D01*
Y025360D01*
X035300Y025260D01*
X035000D01*
X015950Y023300D02*
Y023100D01*
Y023200D01*
X015450D01*
X015350Y023100D01*
Y023000D01*
X015450Y022900D01*
X015350Y023800D02*
X015950D01*
X015650Y023500D01*
Y023900D01*
X006710Y023300D02*
Y023100D01*
Y023200D01*
X006210D01*
X006110Y023100D01*
Y023000D01*
X006210Y022900D01*
X006610Y023500D02*
X006710Y023600D01*
Y023800D01*
X006610Y023900D01*
X006510D01*
X006410Y023800D01*
X006310Y023900D01*
X006210D01*
X006110Y023800D01*
Y023600D01*
X006210Y023500D01*
X006310D01*
X006410Y023600D01*
X006510Y023500D01*
X006610D01*
X006410Y023600D02*
Y023800D01*
X006710Y021300D02*
Y021100D01*
Y021200D01*
X006210D01*
X006110Y021100D01*
Y021000D01*
X006210Y020900D01*
X006710Y021500D02*
Y021900D01*
X006610D01*
X006210Y021500D01*
X006110D01*
X006710Y019300D02*
Y019100D01*
Y019200D01*
X006210D01*
X006110Y019100D01*
Y019000D01*
X006210Y018900D01*
X006710Y019900D02*
X006610Y019700D01*
X006410Y019500D01*
X006210D01*
X006110Y019600D01*
Y019800D01*
X006210Y019900D01*
X006310D01*
X006410Y019800D01*
Y019500D01*
X006710Y017300D02*
Y017100D01*
Y017200D01*
X006210D01*
X006110Y017100D01*
Y017000D01*
X006210Y016900D01*
X006710Y017900D02*
Y017500D01*
X006410D01*
X006510Y017700D01*
Y017800D01*
X006410Y017900D01*
X006210D01*
X006110Y017800D01*
Y017600D01*
X006210Y017500D01*
X015540Y020800D02*
Y020600D01*
Y020700D01*
X015040D01*
X014940Y020600D01*
Y020500D01*
X015040Y020400D01*
X015440Y021000D02*
X015540Y021100D01*
Y021300D01*
X015440Y021400D01*
X015340D01*
X015240Y021300D01*
Y021200D01*
Y021300D01*
X015140Y021400D01*
X015040D01*
X014940Y021300D01*
Y021100D01*
X015040Y021000D01*
X015950Y017550D02*
Y017350D01*
Y017450D01*
X015450D01*
X015350Y017350D01*
Y017250D01*
X015450Y017150D01*
X015350Y018150D02*
Y017750D01*
X015750Y018150D01*
X015850D01*
X015950Y018050D01*
Y017850D01*
X015850Y017750D01*
X049750Y035800D02*
X049850Y035900D01*
X050050D01*
X050150Y035800D01*
Y035400D01*
X050050Y035300D01*
X049850D01*
X049750Y035400D01*
X049550Y035300D02*
X049350D01*
X049450D01*
Y035900D01*
X049550Y035800D01*
X049050D02*
X048950Y035900D01*
X048750D01*
X048650Y035800D01*
Y035700D01*
X048750Y035600D01*
X048650Y035500D01*
Y035400D01*
X048750Y035300D01*
X048950D01*
X049050Y035400D01*
Y035500D01*
X048950Y035600D01*
X049050Y035700D01*
Y035800D01*
X048950Y035600D02*
X048750D01*
X052050Y025300D02*
X052150Y025400D01*
X052350D01*
X052450Y025300D01*
Y024900D01*
X052350Y024800D01*
X052150D01*
X052050Y024900D01*
X051850Y024800D02*
X051650D01*
X051750D01*
Y025400D01*
X051850Y025300D01*
X051350Y025400D02*
X050950D01*
Y025300D01*
X051350Y024900D01*
Y024800D01*
X045250Y029950D02*
X045350Y030050D01*
X045550D01*
X045650Y029950D01*
Y029550D01*
X045550Y029450D01*
X045350D01*
X045250Y029550D01*
X045050Y029450D02*
X044850D01*
X044950D01*
Y030050D01*
X045050Y029950D01*
X044150Y030050D02*
X044350Y029950D01*
X044550Y029750D01*
Y029550D01*
X044450Y029450D01*
X044250D01*
X044150Y029550D01*
Y029650D01*
X044250Y029750D01*
X044550D01*
X049750Y029250D02*
X049850Y029350D01*
X050050D01*
X050150Y029250D01*
Y028850D01*
X050050Y028750D01*
X049850D01*
X049750Y028850D01*
X049550Y028750D02*
X049350D01*
X049450D01*
Y029350D01*
X049550Y029250D01*
X048650Y029350D02*
X049050D01*
Y029050D01*
X048850Y029150D01*
X048750D01*
X048650Y029050D01*
Y028850D01*
X048750Y028750D01*
X048950D01*
X049050Y028850D01*
X057000Y035700D02*
X057100Y035800D01*
X057300D01*
X057400Y035700D01*
Y035300D01*
X057300Y035200D01*
X057100D01*
X057000Y035300D01*
X056800Y035200D02*
X056600D01*
X056700D01*
Y035800D01*
X056800Y035700D01*
X056300Y035200D02*
X056100D01*
X056200D01*
Y035800D01*
X056300Y035700D01*
X060550Y034050D02*
X060650Y034150D01*
X060850D01*
X060950Y034050D01*
Y033650D01*
X060850Y033550D01*
X060650D01*
X060550Y033650D01*
X060350Y033550D02*
X060150D01*
X060250D01*
Y034150D01*
X060350Y034050D01*
X059850D02*
X059750Y034150D01*
X059550D01*
X059450Y034050D01*
Y033950D01*
X059550Y033850D01*
X059650D01*
X059550D01*
X059450Y033750D01*
Y033650D01*
X059550Y033550D01*
X059750D01*
X059850Y033650D01*
X059200Y025350D02*
X059300Y025450D01*
X059500D01*
X059600Y025350D01*
Y024950D01*
X059500Y024850D01*
X059300D01*
X059200Y024950D01*
X059000Y024850D02*
X058800D01*
X058900D01*
Y025450D01*
X059000Y025350D01*
X058200Y024850D02*
Y025450D01*
X058500Y025150D01*
X058100D01*
M02*
