G04 Layer_Color=7318015*
%FSAX24Y24*%
%MOIN*%
G70*
G01*
G75*
%ADD10R,0.0380X0.0335*%
%ADD11O,0.1024X0.0276*%
G04:AMPARAMS|DCode=12|XSize=60mil|YSize=275mil|CornerRadius=6mil|HoleSize=0mil|Usage=FLASHONLY|Rotation=0.000|XOffset=0mil|YOffset=0mil|HoleType=Round|Shape=RoundedRectangle|*
%AMROUNDEDRECTD12*
21,1,0.0600,0.2630,0,0,0.0*
21,1,0.0480,0.2750,0,0,0.0*
1,1,0.0120,0.0240,-0.1315*
1,1,0.0120,-0.0240,-0.1315*
1,1,0.0120,-0.0240,0.1315*
1,1,0.0120,0.0240,0.1315*
%
%ADD12ROUNDEDRECTD12*%
D10*
X052000Y039894D02*
D03*
Y040406D02*
D03*
D11*
X025389Y044250D02*
D03*
Y043750D02*
D03*
Y043250D02*
D03*
Y042750D02*
D03*
Y042250D02*
D03*
Y041750D02*
D03*
Y041250D02*
D03*
Y040750D02*
D03*
Y040250D02*
D03*
Y039750D02*
D03*
X029011Y044250D02*
D03*
Y043750D02*
D03*
Y043250D02*
D03*
Y042750D02*
D03*
Y042250D02*
D03*
Y041750D02*
D03*
Y041250D02*
D03*
Y040750D02*
D03*
Y040250D02*
D03*
Y039750D02*
D03*
X019239Y044250D02*
D03*
Y043750D02*
D03*
Y043250D02*
D03*
Y042750D02*
D03*
Y042250D02*
D03*
Y041750D02*
D03*
Y041250D02*
D03*
Y040750D02*
D03*
Y040250D02*
D03*
Y039750D02*
D03*
X022861Y044250D02*
D03*
Y043750D02*
D03*
Y043250D02*
D03*
Y042750D02*
D03*
Y042250D02*
D03*
Y041750D02*
D03*
Y041250D02*
D03*
Y040750D02*
D03*
Y040250D02*
D03*
Y039750D02*
D03*
D12*
X015100Y011100D02*
D03*
X016100D02*
D03*
X017100D02*
D03*
X018100D02*
D03*
X019100D02*
D03*
X020100D02*
D03*
X021100D02*
D03*
X022100D02*
D03*
X023100D02*
D03*
X024100D02*
D03*
X025100D02*
D03*
X026100D02*
D03*
X027100D02*
D03*
X028100D02*
D03*
X029100D02*
D03*
X030100D02*
D03*
X031100D02*
D03*
X032100D02*
D03*
X033100D02*
D03*
X034100D02*
D03*
X035100D02*
D03*
X036100D02*
D03*
X037100D02*
D03*
X038100D02*
D03*
X039100D02*
D03*
X040100D02*
D03*
X041100D02*
D03*
X042100D02*
D03*
X043100D02*
D03*
X044100D02*
D03*
X045100D02*
D03*
M02*
