G04 Layer_Color=20142*
%FSAX24Y24*%
%MOIN*%
G70*
G01*
G75*
%ADD34R,0.0450X0.0405*%
%ADD35O,0.1094X0.0346*%
G04:AMPARAMS|DCode=36|XSize=67mil|YSize=282mil|CornerRadius=9.5mil|HoleSize=0mil|Usage=FLASHONLY|Rotation=0.000|XOffset=0mil|YOffset=0mil|HoleType=Round|Shape=RoundedRectangle|*
%AMROUNDEDRECTD36*
21,1,0.0670,0.2630,0,0,0.0*
21,1,0.0480,0.2820,0,0,0.0*
1,1,0.0190,0.0240,-0.1315*
1,1,0.0190,-0.0240,-0.1315*
1,1,0.0190,-0.0240,0.1315*
1,1,0.0190,0.0240,0.1315*
%
%ADD36ROUNDEDRECTD36*%
%ADD37C,0.0670*%
%ADD38R,0.0670X0.0670*%
%ADD39R,0.0670X0.0670*%
%ADD40C,0.0570*%
%ADD41R,0.0570X0.0570*%
%ADD42O,0.0661X0.0661*%
%ADD43R,0.0661X0.0661*%
%ADD44R,0.0661X0.0661*%
%ADD45C,0.0661*%
%ADD46C,0.0700*%
%ADD47C,0.2039*%
%ADD48C,0.0290*%
D34*
X052000Y039894D02*
D03*
Y040406D02*
D03*
D35*
X025389Y044250D02*
D03*
Y043750D02*
D03*
Y043250D02*
D03*
Y042750D02*
D03*
Y042250D02*
D03*
Y041750D02*
D03*
Y041250D02*
D03*
Y040750D02*
D03*
Y040250D02*
D03*
Y039750D02*
D03*
X029011Y044250D02*
D03*
Y043750D02*
D03*
Y043250D02*
D03*
Y042750D02*
D03*
Y042250D02*
D03*
Y041750D02*
D03*
Y041250D02*
D03*
Y040750D02*
D03*
Y040250D02*
D03*
Y039750D02*
D03*
X019239Y044250D02*
D03*
Y043750D02*
D03*
Y043250D02*
D03*
Y042750D02*
D03*
Y042250D02*
D03*
Y041750D02*
D03*
Y041250D02*
D03*
Y040750D02*
D03*
Y040250D02*
D03*
Y039750D02*
D03*
X022861Y044250D02*
D03*
Y043750D02*
D03*
Y043250D02*
D03*
Y042750D02*
D03*
Y042250D02*
D03*
Y041750D02*
D03*
Y041250D02*
D03*
Y040750D02*
D03*
Y040250D02*
D03*
Y039750D02*
D03*
D36*
X015100Y011100D02*
D03*
X016100D02*
D03*
X017100D02*
D03*
X018100D02*
D03*
X019100D02*
D03*
X020100D02*
D03*
X021100D02*
D03*
X022100D02*
D03*
X023100D02*
D03*
X024100D02*
D03*
X025100D02*
D03*
X026100D02*
D03*
X027100D02*
D03*
X028100D02*
D03*
X029100D02*
D03*
X030100D02*
D03*
X031100D02*
D03*
X032100D02*
D03*
X033100D02*
D03*
X034100D02*
D03*
X035100D02*
D03*
X036100D02*
D03*
X037100D02*
D03*
X038100D02*
D03*
X039100D02*
D03*
X040100D02*
D03*
X041100D02*
D03*
X042100D02*
D03*
X043100D02*
D03*
X044100D02*
D03*
X045100D02*
D03*
D37*
X058050Y042050D02*
D03*
X057050D02*
D03*
X058050Y043050D02*
D03*
X057050D02*
D03*
X058050Y044050D02*
D03*
X057050D02*
D03*
X058050Y045050D02*
D03*
X057050D02*
D03*
X058050Y046050D02*
D03*
X011500Y027000D02*
D03*
X016500Y034000D02*
D03*
X022500Y022400D02*
D03*
X023500Y016800D02*
D03*
X029000Y045250D02*
D03*
X039000Y045200D02*
D03*
X016500Y044000D02*
D03*
X015500D02*
D03*
X016500Y042000D02*
D03*
X015500D02*
D03*
X016500Y040000D02*
D03*
X015500D02*
D03*
X054000Y046750D02*
D03*
X038950Y029550D02*
D03*
X061000Y044000D02*
D03*
X060000D02*
D03*
X061000Y046000D02*
D03*
X060000D02*
D03*
X013000Y044000D02*
D03*
X012000D02*
D03*
X013000Y043000D02*
D03*
X012000D02*
D03*
X013000Y042000D02*
D03*
X012000D02*
D03*
X013000Y041000D02*
D03*
X012000D02*
D03*
X013000Y040000D02*
D03*
X012000D02*
D03*
X013000Y039000D02*
D03*
X012000D02*
D03*
X013500Y031500D02*
D03*
Y030500D02*
D03*
Y029500D02*
D03*
Y028500D02*
D03*
Y027500D02*
D03*
Y026500D02*
D03*
X016500Y032500D02*
D03*
Y031500D02*
D03*
Y030500D02*
D03*
Y029500D02*
D03*
Y028500D02*
D03*
Y027500D02*
D03*
Y026500D02*
D03*
Y025000D02*
D03*
X018550Y024200D02*
D03*
X020700Y038300D02*
D03*
X021700D02*
D03*
Y035300D02*
D03*
X022700D02*
D03*
X023700D02*
D03*
X024700D02*
D03*
X025700D02*
D03*
X026700D02*
D03*
X022700Y038300D02*
D03*
X023700D02*
D03*
X024700D02*
D03*
X025700D02*
D03*
X026700D02*
D03*
X027700D02*
D03*
Y035300D02*
D03*
X018900Y038300D02*
D03*
D38*
X057050Y046050D02*
D03*
X022500Y021400D02*
D03*
X020700Y035300D02*
D03*
X018900Y037300D02*
D03*
D39*
X010500Y027000D02*
D03*
X015500Y034000D02*
D03*
X024500Y016800D02*
D03*
X028000Y045250D02*
D03*
X038000Y045200D02*
D03*
X021850Y045250D02*
D03*
X053000Y046750D02*
D03*
X037950Y029550D02*
D03*
X013500Y032500D02*
D03*
X015500Y025000D02*
D03*
X019550Y024200D02*
D03*
D40*
X038500Y042500D02*
D03*
Y043500D02*
D03*
X039500Y042500D02*
D03*
Y043500D02*
D03*
X040500Y042500D02*
D03*
Y043500D02*
D03*
X041500Y042500D02*
D03*
X040500Y041500D02*
D03*
X041500D02*
D03*
X040500Y040500D02*
D03*
X041500D02*
D03*
X040500Y039500D02*
D03*
X041500D02*
D03*
X040500Y038500D02*
D03*
X041500D02*
D03*
X040500Y037500D02*
D03*
X041500D02*
D03*
X040500Y036500D02*
D03*
X041500D02*
D03*
X040500Y035500D02*
D03*
X039500Y036500D02*
D03*
Y035500D02*
D03*
X038500Y036500D02*
D03*
Y035500D02*
D03*
X037500Y036500D02*
D03*
Y035500D02*
D03*
X036500Y036500D02*
D03*
Y035500D02*
D03*
X035500Y036500D02*
D03*
Y035500D02*
D03*
X034500Y036500D02*
D03*
Y035500D02*
D03*
X033500Y036500D02*
D03*
X034500Y037500D02*
D03*
X033500D02*
D03*
X034500Y038500D02*
D03*
X033500D02*
D03*
X034500Y039500D02*
D03*
X033500D02*
D03*
X034500Y040500D02*
D03*
X033500D02*
D03*
X034500Y041500D02*
D03*
X033500D02*
D03*
X034500Y042500D02*
D03*
X033500D02*
D03*
X034500Y043500D02*
D03*
X035500Y042500D02*
D03*
Y043500D02*
D03*
X036500Y042500D02*
D03*
Y043500D02*
D03*
X037500Y042500D02*
D03*
X038500Y027000D02*
D03*
Y028000D02*
D03*
X039500Y027000D02*
D03*
Y028000D02*
D03*
X040500Y027000D02*
D03*
Y028000D02*
D03*
X041500Y027000D02*
D03*
X040500Y026000D02*
D03*
X041500D02*
D03*
X040500Y025000D02*
D03*
X041500D02*
D03*
X040500Y024000D02*
D03*
X041500D02*
D03*
X040500Y023000D02*
D03*
X041500D02*
D03*
X040500Y022000D02*
D03*
X041500D02*
D03*
X040500Y021000D02*
D03*
X041500D02*
D03*
X040500Y020000D02*
D03*
X039500Y021000D02*
D03*
Y020000D02*
D03*
X038500Y021000D02*
D03*
Y020000D02*
D03*
X037500Y021000D02*
D03*
Y020000D02*
D03*
X036500Y021000D02*
D03*
Y020000D02*
D03*
X035500Y021000D02*
D03*
Y020000D02*
D03*
X034500Y021000D02*
D03*
Y020000D02*
D03*
X033500Y021000D02*
D03*
X034500Y022000D02*
D03*
X033500D02*
D03*
X034500Y023000D02*
D03*
X033500D02*
D03*
X034500Y024000D02*
D03*
X033500D02*
D03*
X034500Y025000D02*
D03*
X033500D02*
D03*
X034500Y026000D02*
D03*
X033500D02*
D03*
X034500Y027000D02*
D03*
X033500D02*
D03*
X034500Y028000D02*
D03*
X035500Y027000D02*
D03*
Y028000D02*
D03*
X036500Y027000D02*
D03*
Y028000D02*
D03*
X037500Y027000D02*
D03*
X054000Y037000D02*
D03*
Y038000D02*
D03*
X055000Y037000D02*
D03*
Y038000D02*
D03*
X056000Y037000D02*
D03*
Y038000D02*
D03*
X057000Y037000D02*
D03*
Y038000D02*
D03*
X058000Y037000D02*
D03*
Y038000D02*
D03*
X059000Y037000D02*
D03*
X058000Y036000D02*
D03*
X059000D02*
D03*
X058000Y035000D02*
D03*
X059000D02*
D03*
X058000Y034000D02*
D03*
X059000D02*
D03*
X058000Y033000D02*
D03*
X059000D02*
D03*
X058000Y032000D02*
D03*
X059000D02*
D03*
X058000Y031000D02*
D03*
X059000D02*
D03*
X058000Y030000D02*
D03*
X059000D02*
D03*
X058000Y029000D02*
D03*
X059000D02*
D03*
X058000Y028000D02*
D03*
X059000D02*
D03*
X058000Y027000D02*
D03*
X059000D02*
D03*
X058000Y026000D02*
D03*
X057000Y027000D02*
D03*
Y026000D02*
D03*
X056000Y027000D02*
D03*
Y026000D02*
D03*
X055000Y027000D02*
D03*
Y026000D02*
D03*
X054000Y027000D02*
D03*
Y026000D02*
D03*
X053000Y027000D02*
D03*
Y026000D02*
D03*
X052000Y027000D02*
D03*
Y026000D02*
D03*
X051000Y027000D02*
D03*
Y026000D02*
D03*
X050000Y027000D02*
D03*
Y026000D02*
D03*
X049000Y027000D02*
D03*
Y026000D02*
D03*
X048000Y027000D02*
D03*
Y026000D02*
D03*
X047000Y027000D02*
D03*
X048000Y028000D02*
D03*
X047000D02*
D03*
X048000Y029000D02*
D03*
X047000D02*
D03*
X048000Y030000D02*
D03*
X047000D02*
D03*
X048000Y031000D02*
D03*
X047000D02*
D03*
X048000Y032000D02*
D03*
X047000D02*
D03*
X048000Y033000D02*
D03*
X047000D02*
D03*
X048000Y034000D02*
D03*
X047000D02*
D03*
X048000Y035000D02*
D03*
X047000D02*
D03*
X048000Y036000D02*
D03*
X047000D02*
D03*
X048000Y037000D02*
D03*
X047000D02*
D03*
X048000Y038000D02*
D03*
X049000Y037000D02*
D03*
Y038000D02*
D03*
X050000Y037000D02*
D03*
Y038000D02*
D03*
X051000Y037000D02*
D03*
Y038000D02*
D03*
X052000Y037000D02*
D03*
Y038000D02*
D03*
X053000Y037000D02*
D03*
D41*
X037500Y043500D02*
D03*
Y028000D02*
D03*
X053000Y038000D02*
D03*
D42*
X023500Y031500D02*
D03*
Y030500D02*
D03*
Y029500D02*
D03*
Y028500D02*
D03*
Y027500D02*
D03*
Y026500D02*
D03*
Y025500D02*
D03*
Y024500D02*
D03*
Y023500D02*
D03*
Y022500D02*
D03*
Y021500D02*
D03*
Y020500D02*
D03*
Y019500D02*
D03*
Y018500D02*
D03*
X029500Y031500D02*
D03*
Y030500D02*
D03*
Y029500D02*
D03*
Y028500D02*
D03*
Y027500D02*
D03*
Y026500D02*
D03*
Y025500D02*
D03*
Y024500D02*
D03*
Y023500D02*
D03*
Y022500D02*
D03*
Y021500D02*
D03*
Y020500D02*
D03*
Y019500D02*
D03*
D43*
Y018500D02*
D03*
D44*
X008500Y025400D02*
D03*
X013500Y023400D02*
D03*
X018500Y022400D02*
D03*
X021550Y025500D02*
D03*
X051000Y044950D02*
D03*
D45*
X008500Y024400D02*
D03*
Y023400D02*
D03*
Y022400D02*
D03*
Y021400D02*
D03*
Y020400D02*
D03*
Y019400D02*
D03*
Y018400D02*
D03*
Y017400D02*
D03*
Y016400D02*
D03*
X011500Y025400D02*
D03*
Y024400D02*
D03*
Y023400D02*
D03*
Y022400D02*
D03*
Y021400D02*
D03*
Y020400D02*
D03*
Y019400D02*
D03*
Y018400D02*
D03*
Y017400D02*
D03*
Y016400D02*
D03*
X013500Y022400D02*
D03*
Y021400D02*
D03*
Y020400D02*
D03*
Y019400D02*
D03*
Y018400D02*
D03*
Y017400D02*
D03*
Y016400D02*
D03*
X016500Y023400D02*
D03*
Y022400D02*
D03*
Y021400D02*
D03*
Y020400D02*
D03*
Y019400D02*
D03*
Y018400D02*
D03*
Y017400D02*
D03*
Y016400D02*
D03*
X018500Y021400D02*
D03*
Y020400D02*
D03*
Y019400D02*
D03*
Y018400D02*
D03*
Y017400D02*
D03*
Y016400D02*
D03*
X021500Y022400D02*
D03*
Y021400D02*
D03*
Y020400D02*
D03*
Y019400D02*
D03*
Y018400D02*
D03*
Y017400D02*
D03*
Y016400D02*
D03*
X009500Y043149D02*
D03*
Y039551D02*
D03*
Y040451D02*
D03*
Y041350D02*
D03*
Y042250D02*
D03*
X010500Y043599D02*
D03*
Y042700D02*
D03*
Y041800D02*
D03*
Y040900D02*
D03*
Y040001D02*
D03*
X008500Y043599D02*
D03*
Y042700D02*
D03*
Y041800D02*
D03*
Y040900D02*
D03*
Y040001D02*
D03*
X018550Y032500D02*
D03*
Y031500D02*
D03*
Y030500D02*
D03*
Y029500D02*
D03*
Y028500D02*
D03*
Y027500D02*
D03*
Y026500D02*
D03*
Y025500D02*
D03*
X021550Y032500D02*
D03*
Y031500D02*
D03*
Y030500D02*
D03*
Y029500D02*
D03*
Y028500D02*
D03*
Y027500D02*
D03*
Y026500D02*
D03*
X051000Y041950D02*
D03*
X054000Y044950D02*
D03*
Y041950D02*
D03*
D46*
X022850Y045250D02*
D03*
D47*
X009500Y046623D02*
D03*
Y036776D02*
D03*
D48*
X032400Y015930D02*
D03*
X025790Y014990D02*
D03*
X020500Y022400D02*
D03*
Y018400D02*
D03*
X036350Y026100D02*
D03*
X035500Y037500D02*
D03*
X035850Y036150D02*
D03*
X035750Y028850D02*
D03*
X034950Y037050D02*
D03*
X007250Y022250D02*
D03*
X014850Y017300D02*
D03*
X014450Y022700D02*
D03*
X007250Y024250D02*
D03*
Y020250D02*
D03*
Y018250D02*
D03*
X043000Y031950D02*
D03*
X026000Y032100D02*
D03*
Y023500D02*
D03*
X026700Y032590D02*
D03*
X026300Y032300D02*
D03*
X027100Y015750D02*
D03*
X036850Y015450D02*
D03*
X035500Y015700D02*
D03*
X017400Y013250D02*
D03*
X012700Y016900D02*
D03*
X028300Y022000D02*
D03*
X017700Y013000D02*
D03*
X024193Y019857D02*
D03*
X024500Y020100D02*
D03*
X015750Y013050D02*
D03*
X018100Y014250D02*
D03*
X017100Y014500D02*
D03*
X016100Y014750D02*
D03*
X011900Y015000D02*
D03*
X025600Y013250D02*
D03*
X024700Y013800D02*
D03*
X023700D02*
D03*
X025100Y014050D02*
D03*
X022100Y014300D02*
D03*
X021100Y014550D02*
D03*
X020100Y014790D02*
D03*
X019100Y015000D02*
D03*
X022100Y015250D02*
D03*
X024100D02*
D03*
X012200D02*
D03*
X022500Y015500D02*
D03*
X012450D02*
D03*
X023100D02*
D03*
X020200Y020400D02*
D03*
X044000Y038450D02*
D03*
X041900Y034800D02*
D03*
X052480Y034520D02*
D03*
X037100Y034600D02*
D03*
X043250Y033220D02*
D03*
X020050Y033000D02*
D03*
X027500Y032800D02*
D03*
X042700D02*
D03*
X044100Y013300D02*
D03*
Y012900D02*
D03*
X032400Y013880D02*
D03*
X026250Y040750D02*
D03*
Y041250D02*
D03*
X026500Y042750D02*
D03*
Y043250D02*
D03*
X050000Y031600D02*
D03*
X030000Y041250D02*
D03*
X031490Y024600D02*
D03*
X031950Y023550D02*
D03*
X021200Y039550D02*
D03*
Y036900D02*
D03*
X024600Y040500D02*
D03*
X043000Y034750D02*
D03*
X045300Y035050D02*
D03*
X022700Y030700D02*
D03*
X029350Y033500D02*
D03*
X045600Y035500D02*
D03*
X045300Y041000D02*
D03*
Y026350D02*
D03*
X047335Y040450D02*
D03*
X047550Y040150D02*
D03*
X043780Y027520D02*
D03*
Y035950D02*
D03*
Y043100D02*
D03*
X035950Y015200D02*
D03*
X044300D02*
D03*
X043800Y015700D02*
D03*
X035000Y016200D02*
D03*
X043300D02*
D03*
X034500Y016700D02*
D03*
X042800D02*
D03*
X033500Y017200D02*
D03*
X042300D02*
D03*
X033850Y017950D02*
D03*
X040550D02*
D03*
X034100Y017700D02*
D03*
X041800D02*
D03*
X033000Y018200D02*
D03*
X041300D02*
D03*
X043500Y038150D02*
D03*
X044400Y038500D02*
D03*
X027950Y039750D02*
D03*
X023800D02*
D03*
X024700Y037250D02*
D03*
X027500Y027500D02*
D03*
X042700Y038000D02*
D03*
X049000Y032700D02*
D03*
X048500Y032400D02*
D03*
X026700Y026500D02*
D03*
X026300Y025500D02*
D03*
X046200Y034100D02*
D03*
X046500Y033800D02*
D03*
X022750Y016400D02*
D03*
X032410Y027550D02*
D03*
X032200Y023000D02*
D03*
X015800Y020400D02*
D03*
Y021900D02*
D03*
X015100Y022900D02*
D03*
Y018400D02*
D03*
X028100Y016200D02*
D03*
X025500Y016500D02*
D03*
X025200Y016200D02*
D03*
X015100Y017900D02*
D03*
X026100Y013700D02*
D03*
X049700Y036350D02*
D03*
X053000Y024350D02*
D03*
X046200Y029000D02*
D03*
X050000Y028550D02*
D03*
X059500Y026000D02*
D03*
X060550Y033000D02*
D03*
X052000Y040850D02*
D03*
X056000Y036350D02*
D03*
X016100Y033220D02*
D03*
X043250Y034500D02*
D03*
X030000Y028000D02*
D03*
Y015500D02*
D03*
X023700D02*
D03*
X030250Y027000D02*
D03*
Y015250D02*
D03*
X030500Y026500D02*
D03*
Y015000D02*
D03*
X031000Y014450D02*
D03*
X030750Y026000D02*
D03*
X031250Y025000D02*
D03*
Y014200D02*
D03*
X035500Y034600D02*
D03*
X038000Y019500D02*
D03*
X032750Y035500D02*
D03*
Y020000D02*
D03*
X031010Y025640D02*
D03*
X044400Y039500D02*
D03*
X044100Y036600D02*
D03*
X044700Y040500D02*
D03*
Y038950D02*
D03*
X058000D02*
D03*
X057500Y039200D02*
D03*
X045600Y041500D02*
D03*
Y026000D02*
D03*
X045000Y025500D02*
D03*
X044700Y025000D02*
D03*
X044400Y024000D02*
D03*
X044100Y023000D02*
D03*
X043500Y043500D02*
D03*
Y028000D02*
D03*
X040400Y034800D02*
D03*
X047500Y026700D02*
D03*
X035500Y019500D02*
D03*
X027900Y022500D02*
D03*
Y019900D02*
D03*
X037000Y025700D02*
D03*
X037600D02*
D03*
X039900Y018710D02*
D03*
X009050Y015750D02*
D03*
X025250Y017750D02*
D03*
X041700Y037000D02*
D03*
X045000Y039900D02*
D03*
X039700Y018500D02*
D03*
X034950Y036100D02*
D03*
X038100Y034300D02*
D03*
X020300D02*
D03*
X017400Y026000D02*
D03*
X017750Y040250D02*
D03*
X030000Y040750D02*
D03*
Y042750D02*
D03*
Y043250D02*
D03*
X037500Y039050D02*
D03*
X037200Y039450D02*
D03*
X027100Y037500D02*
D03*
X026400Y036150D02*
D03*
X020050Y026500D02*
D03*
X024250Y044250D02*
D03*
X022250Y036750D02*
D03*
X027000D02*
D03*
X053500Y033500D02*
D03*
X023750Y042000D02*
D03*
X018000Y043250D02*
D03*
X018350Y039750D02*
D03*
X024600D02*
D03*
X018350Y044250D02*
D03*
X019000Y035450D02*
D03*
X019850Y039300D02*
D03*
X020600Y031500D02*
D03*
X024250Y040500D02*
D03*
X027400Y040250D02*
D03*
X027900D02*
D03*
X045100Y012900D02*
D03*
Y013300D02*
D03*
X024700Y015250D02*
D03*
X022750Y017750D02*
D03*
X022500Y017450D02*
D03*
X022100Y017200D02*
D03*
X031950D02*
D03*
X031700Y024010D02*
D03*
Y017450D02*
D03*
X032190Y013490D02*
D03*
X031490Y013950D02*
D03*
X030750Y014710D02*
D03*
X029100Y016500D02*
D03*
X017700Y024970D02*
D03*
X025250Y028710D02*
D03*
M02*
