G04 Layer_Physical_Order=1*
G04 Layer_Color=25308*
%FSAX24Y24*%
%MOIN*%
G70*
G01*
G75*
%ADD10R,0.0380X0.0335*%
%ADD11O,0.1024X0.0276*%
G04:AMPARAMS|DCode=12|XSize=60mil|YSize=275mil|CornerRadius=6mil|HoleSize=0mil|Usage=FLASHONLY|Rotation=0.000|XOffset=0mil|YOffset=0mil|HoleType=Round|Shape=RoundedRectangle|*
%AMROUNDEDRECTD12*
21,1,0.0600,0.2630,0,0,0.0*
21,1,0.0480,0.2750,0,0,0.0*
1,1,0.0120,0.0240,-0.1315*
1,1,0.0120,-0.0240,-0.1315*
1,1,0.0120,-0.0240,0.1315*
1,1,0.0120,0.0240,0.1315*
%
%ADD12ROUNDEDRECTD12*%
%ADD13C,0.0100*%
%ADD14C,0.0200*%
%ADD15C,0.0600*%
%ADD16R,0.0600X0.0600*%
%ADD17R,0.0600X0.0600*%
%ADD18C,0.0500*%
%ADD19R,0.0500X0.0500*%
%ADD20O,0.0591X0.0591*%
%ADD21R,0.0591X0.0591*%
%ADD22R,0.0591X0.0591*%
%ADD23C,0.0591*%
%ADD24C,0.0630*%
%ADD25C,0.1969*%
%ADD26C,0.0220*%
D10*
X052000Y039894D02*
D03*
Y040406D02*
D03*
D11*
X025389Y044250D02*
D03*
Y043750D02*
D03*
Y043250D02*
D03*
Y042750D02*
D03*
Y042250D02*
D03*
Y041750D02*
D03*
Y041250D02*
D03*
Y040750D02*
D03*
Y040250D02*
D03*
Y039750D02*
D03*
X029011Y044250D02*
D03*
Y043750D02*
D03*
Y043250D02*
D03*
Y042750D02*
D03*
Y042250D02*
D03*
Y041750D02*
D03*
Y041250D02*
D03*
Y040750D02*
D03*
Y040250D02*
D03*
Y039750D02*
D03*
X019239Y044250D02*
D03*
Y043750D02*
D03*
Y043250D02*
D03*
Y042750D02*
D03*
Y042250D02*
D03*
Y041750D02*
D03*
Y041250D02*
D03*
Y040750D02*
D03*
Y040250D02*
D03*
Y039750D02*
D03*
X022861Y044250D02*
D03*
Y043750D02*
D03*
Y043250D02*
D03*
Y042750D02*
D03*
Y042250D02*
D03*
Y041750D02*
D03*
Y041250D02*
D03*
Y040750D02*
D03*
Y040250D02*
D03*
Y039750D02*
D03*
D12*
X015100Y011100D02*
D03*
X016100D02*
D03*
X017100D02*
D03*
X018100D02*
D03*
X019100D02*
D03*
X020100D02*
D03*
X021100D02*
D03*
X022100D02*
D03*
X023100D02*
D03*
X024100D02*
D03*
X025100D02*
D03*
X026100D02*
D03*
X027100D02*
D03*
X028100D02*
D03*
X029100D02*
D03*
X030100D02*
D03*
X031100D02*
D03*
X032100D02*
D03*
X033100D02*
D03*
X034100D02*
D03*
X035100D02*
D03*
X036100D02*
D03*
X037100D02*
D03*
X038100D02*
D03*
X039100D02*
D03*
X040100D02*
D03*
X041100D02*
D03*
X042100D02*
D03*
X043100D02*
D03*
X044100D02*
D03*
X045100D02*
D03*
D13*
X032190Y013490D02*
Y022990D01*
X032200Y023000D01*
X025790Y013440D02*
Y014990D01*
X025600Y013250D02*
X025790Y013440D01*
X020500Y021500D02*
Y022400D01*
Y018400D02*
Y020300D01*
X036110Y021610D02*
Y036390D01*
X037500Y028800D02*
X038000Y028300D01*
Y027500D02*
Y028300D01*
X037500Y027000D02*
X038000Y027500D01*
X036900Y027800D02*
Y034430D01*
X036500Y027400D02*
X036900Y027800D01*
X036500Y027000D02*
Y027400D01*
X036750Y025000D02*
Y026100D01*
X036500Y026350D02*
X036750Y026100D01*
X036500Y026350D02*
Y027000D01*
X035900Y035100D02*
Y035800D01*
X035850Y035850D02*
X035900Y035800D01*
X035850Y035850D02*
Y036150D01*
X035500Y037500D02*
Y042500D01*
X035850Y036150D02*
X035900Y036100D01*
X035750Y034950D02*
X035900Y035100D01*
X035750Y028850D02*
Y034950D01*
X035100Y029100D02*
X035900Y028300D01*
X011500Y018400D02*
X011905Y017995D01*
Y016227D02*
Y017995D01*
X022900Y031500D02*
X023500D01*
X022700Y031300D02*
X022900Y031500D01*
X022700Y030700D02*
Y031300D01*
X054500Y024500D02*
Y026500D01*
X047700Y017700D02*
X054500Y024500D01*
X041800Y017700D02*
X047700D01*
X054000Y025000D02*
Y026000D01*
X047200Y018200D02*
X054000Y025000D01*
X041300Y018200D02*
X047200D01*
X047500Y021500D02*
Y026700D01*
X045300Y019300D02*
X047500Y021500D01*
X041100Y019300D02*
X045300D01*
X052000Y025000D02*
Y026000D01*
X046000Y019000D02*
X052000Y025000D01*
X041200Y019000D02*
X046000D01*
X053500Y025500D02*
Y026500D01*
X046700Y018700D02*
X053500Y025500D01*
X041300Y018700D02*
X046700D01*
X057500Y021500D02*
Y026500D01*
X051200Y015200D02*
X057500Y021500D01*
X044300Y015200D02*
X051200D01*
X057000Y022000D02*
Y026000D01*
X050700Y015700D02*
X057000Y022000D01*
X043800Y015700D02*
X050700D01*
X056500Y022500D02*
Y026500D01*
X050200Y016200D02*
X056500Y022500D01*
X043300Y016200D02*
X050200D01*
X056000Y023000D02*
Y026000D01*
X049700Y016700D02*
X056000Y023000D01*
X042800Y016700D02*
X049700D01*
X055500Y023500D02*
Y026500D01*
X049200Y017200D02*
X055500Y023500D01*
X042300Y017200D02*
X049200D01*
X035050Y013250D02*
X041100Y019300D01*
X053000Y027000D02*
X053500Y026500D01*
X020500Y020300D02*
Y020400D01*
Y020500D02*
Y021300D01*
Y020400D02*
Y020500D01*
Y021400D02*
Y021500D01*
Y021300D02*
Y021400D01*
X012700Y016900D02*
Y023200D01*
X011500Y024400D02*
X012700Y023200D01*
X012200Y015250D02*
Y019700D01*
X011500Y020400D02*
X012200Y019700D01*
X031350Y013250D02*
X035050D01*
X031100Y013000D02*
X031350Y013250D01*
X034300Y012950D02*
X035150D01*
X034100Y012750D02*
X034300Y012950D01*
X034100Y011100D02*
Y012750D01*
X031100Y011100D02*
Y013000D01*
X030100Y011100D02*
Y013000D01*
X029700Y013400D02*
X030100Y013000D01*
X029700Y013400D02*
Y017000D01*
X035150Y012950D02*
X041200Y019000D01*
X043000Y031950D02*
Y034750D01*
X026000Y023500D02*
Y032100D01*
X026700Y026500D02*
Y032590D01*
X026300Y025500D02*
Y032300D01*
X037000Y019650D02*
Y024750D01*
X036850Y019500D02*
X037000Y019650D01*
X036850Y015450D02*
Y019500D01*
X027100Y011100D02*
Y015750D01*
X035500Y015700D02*
Y019500D01*
X017400Y013250D02*
Y026000D01*
X028300Y018400D02*
Y022000D01*
X017700Y013000D02*
Y024970D01*
X024300Y018100D02*
Y019750D01*
X024193Y019857D02*
X024300Y019750D01*
X024510Y018081D02*
Y020090D01*
X024500Y020100D02*
X024510Y020090D01*
X015500Y013300D02*
Y023400D01*
Y013300D02*
X015750Y013050D01*
X018100Y011100D02*
Y014250D01*
X017100Y011100D02*
Y014500D01*
X016100Y011100D02*
Y014750D01*
X011900Y015000D02*
Y016222D01*
X024700Y013800D02*
Y015250D01*
X023700Y013800D02*
Y015500D01*
X025100Y011100D02*
Y014050D01*
X022100Y011100D02*
Y014300D01*
X021100Y011100D02*
Y014550D01*
X020100Y011100D02*
Y014790D01*
X019100Y011100D02*
Y015000D01*
X024100Y011100D02*
Y015250D01*
X012450Y015500D02*
Y021450D01*
X023100Y011100D02*
Y015500D01*
X032400Y013880D02*
Y022903D01*
X018900Y019400D02*
X019150Y019650D01*
Y021250D01*
X019000Y021400D02*
X019150Y021250D01*
X020200Y020400D02*
Y022650D01*
X020300Y022750D02*
Y034300D01*
X020200Y022650D02*
X020300Y022750D01*
X020341Y037500D02*
X027100D01*
X020200Y037641D02*
X020341Y037500D01*
X020200Y037641D02*
Y040900D01*
X044000Y037550D02*
Y038450D01*
Y037550D02*
X044100Y037450D01*
X043780Y035970D02*
Y043100D01*
X034950Y029024D02*
X035140Y028834D01*
X034950Y029024D02*
Y036100D01*
X033860Y021851D02*
Y035690D01*
X033500Y036050D02*
X033860Y035690D01*
X033500Y036050D02*
Y036500D01*
X037200Y039200D02*
Y039450D01*
X037125Y039125D02*
X037200Y039200D01*
X037125Y035875D02*
Y039125D01*
X041900Y034800D02*
Y036900D01*
Y037500D02*
X042110Y037290D01*
X041700Y022000D02*
X042110Y022410D01*
Y037290D01*
X041800Y037000D02*
X041900Y036900D01*
X041500Y037500D02*
X041900D01*
X041500Y022000D02*
X041700D01*
X052480Y034520D02*
Y037480D01*
X037100Y034600D02*
X037110Y034590D01*
X043250Y033220D02*
Y034500D01*
X020050Y026500D02*
Y033000D01*
Y034300D01*
X027500Y027500D02*
Y032800D01*
X042700D02*
Y038000D01*
X025389Y040750D02*
X026250D01*
X025389Y041250D02*
X026250D01*
X026215Y041750D02*
X026460Y041505D01*
X025200Y038650D02*
X026460Y039910D01*
Y041505D01*
X025389Y042750D02*
X026500D01*
X025389Y043250D02*
X026500D01*
X047000Y036000D02*
X047400Y036400D01*
X047335Y039950D02*
Y040450D01*
Y039950D02*
X047400Y039885D01*
Y036400D02*
Y039885D01*
X037125Y035875D02*
X037500Y035500D01*
X036990Y035310D02*
X037500Y034800D01*
X036990Y035310D02*
Y041990D01*
X036500Y037150D02*
X036855Y036795D01*
X036500Y037150D02*
Y042500D01*
X035250Y035950D02*
Y036150D01*
X034900Y036500D02*
X035250Y036150D01*
X034500Y036500D02*
X034900D01*
X035100Y035800D02*
X035250Y035950D01*
X035140Y022240D02*
Y028834D01*
X035100Y029100D02*
Y035800D01*
X050000Y031600D02*
Y037000D01*
X049000Y032700D02*
Y037000D01*
X040650Y024600D02*
X040950D01*
X040500Y024450D02*
X040650Y024600D01*
X040500Y024000D02*
Y024450D01*
X040950Y024600D02*
X041100Y024750D01*
X040250Y025500D02*
X040700D01*
X040900Y025700D01*
X040100Y025350D02*
X040250Y025500D01*
X040100Y023400D02*
Y025350D01*
Y023400D02*
X040500Y023000D01*
X029011Y041250D02*
X030000D01*
X031490Y024600D02*
Y038590D01*
Y013950D02*
Y024600D01*
X021350Y036150D02*
X026400D01*
X021200Y039550D02*
Y041800D01*
X020400Y037250D02*
X024700D01*
X021200Y036300D02*
Y036900D01*
Y036300D02*
X021350Y036150D01*
X025200Y037850D02*
Y038650D01*
Y037850D02*
X025400Y037650D01*
X024600Y040500D02*
Y042100D01*
X024750Y042250D01*
X025389D01*
X021800Y035900D02*
X027850D01*
X022250Y036750D02*
X027000D01*
X045300Y035050D02*
Y041000D01*
Y026350D02*
Y035050D01*
X045000Y025500D02*
Y039900D01*
X044700Y025000D02*
Y038950D01*
X044400Y024000D02*
Y039500D01*
X044100Y023000D02*
Y036600D01*
X043780Y027520D02*
Y035950D01*
X043500Y028000D02*
Y038150D01*
X031010Y039110D02*
X032900Y041000D01*
X031010Y025640D02*
Y039110D01*
X034500Y021350D02*
X035900Y022750D01*
X034500Y021000D02*
Y021350D01*
X035900Y022750D02*
Y028300D01*
X029700Y033850D02*
Y039600D01*
X029350Y033500D02*
X029700Y033850D01*
X022700Y033500D02*
X029350D01*
X045600Y035500D02*
Y041500D01*
Y026000D02*
Y035500D01*
X057050Y045050D02*
X057550Y044550D01*
X058300D01*
X058500Y044350D01*
Y035700D02*
Y044350D01*
X047560Y036334D02*
Y040140D01*
X047550Y040150D02*
X047560Y040140D01*
X054000Y038000D02*
Y041950D01*
X043500Y038150D02*
Y043500D01*
X043100Y014000D02*
X044300Y015200D01*
X035000Y016200D02*
Y020100D01*
X034500Y016700D02*
Y020000D01*
X033500Y017200D02*
Y021000D01*
X040550Y017950D02*
X041300Y018700D01*
X036100Y013500D02*
X040550Y017950D01*
X034100Y017700D02*
Y021600D01*
X033000Y018200D02*
Y021500D01*
X037100Y014000D02*
X041300Y018200D01*
X037100Y011100D02*
Y014000D01*
X038100D02*
X041800Y017700D01*
X038100Y011100D02*
Y014000D01*
X039100D02*
X042300Y017200D01*
X039100Y011100D02*
Y014000D01*
X040100D02*
X042800Y016700D01*
X040100Y011100D02*
Y014000D01*
X041100D02*
X043300Y016200D01*
X041100Y011100D02*
Y014000D01*
X042100D02*
X043800Y015700D01*
X042100Y011100D02*
Y014000D01*
X043100Y011100D02*
Y014000D01*
X035950Y015200D02*
Y020100D01*
X021550Y031500D02*
X022150D01*
X022450Y031800D01*
Y033250D01*
X022700Y033500D01*
X029550Y039750D02*
X029700Y039600D01*
X029011Y039750D02*
X029550D01*
X027950D02*
X029011D01*
X022861D02*
X023800D01*
X041100Y024750D02*
Y038900D01*
X040400Y028800D02*
Y034800D01*
X037500Y028800D02*
Y034800D01*
X048500Y032400D02*
Y037500D01*
X049000Y038000D01*
X046200Y031800D02*
Y034100D01*
Y031800D02*
X047000Y031000D01*
X046500Y032500D02*
Y033800D01*
Y032500D02*
X047000Y032000D01*
X048000Y031000D02*
X048550Y030450D01*
X059550Y031550D02*
Y044850D01*
X059000Y031000D02*
X059550Y031550D01*
X058850Y045550D02*
X059550Y044850D01*
X057550Y045550D02*
X058850D01*
X057050Y046050D02*
X057550Y045550D01*
X058000Y035000D02*
Y035200D01*
X058500Y035700D01*
X047450Y036224D02*
X047560Y036334D01*
X047450Y032300D02*
Y036224D01*
Y032300D02*
X047750Y032000D01*
X048000D01*
X032410Y022913D02*
Y027550D01*
X032400Y022903D02*
X032410Y022913D01*
X014700Y024200D02*
X015500Y023400D01*
X014700Y024200D02*
Y025600D01*
X015400Y026300D01*
Y032450D01*
X015800Y020400D02*
Y021900D01*
X015100Y018400D02*
Y022900D01*
X028100Y011100D02*
Y016200D01*
X025200D02*
Y017200D01*
X024300Y018100D02*
X025200Y017200D01*
X018500Y019400D02*
X018900D01*
X018500Y021400D02*
X019000D01*
X018500Y018400D02*
Y019400D01*
X015100Y011100D02*
Y017900D01*
X011900Y016222D02*
X011905Y016227D01*
X026100Y011100D02*
Y013700D01*
X015400Y032450D02*
X016100Y033220D01*
X052480Y037480D02*
X053000Y038000D01*
X055000Y027000D02*
X055500Y026500D01*
X056000Y027000D02*
X056500Y026500D01*
X057000Y027000D02*
X057500Y026500D01*
X030500Y015000D02*
Y026500D01*
X030250Y015250D02*
Y027000D01*
X030000Y015500D02*
Y028000D01*
X031250Y014200D02*
Y025000D01*
X033000Y021500D02*
X033500Y022000D01*
X012000Y043000D02*
Y044000D01*
Y041000D02*
Y042000D01*
Y039000D02*
Y040000D01*
X034350Y038500D02*
X034500D01*
X034000Y022500D02*
X034500Y023000D01*
X035500Y034600D02*
Y035500D01*
X038000Y019500D02*
Y025700D01*
X033500Y022000D02*
Y022250D01*
X033150Y037500D02*
X033500D01*
X034020Y023480D02*
X034500Y023000D01*
Y022000D02*
X034900D01*
X035140Y022240D01*
X034500Y037500D02*
X034950Y037050D01*
X033500Y021000D02*
Y021491D01*
X034100Y021600D02*
X034500Y022000D01*
X033500Y021491D02*
X033860Y021851D01*
X033000Y022750D02*
X033500Y022250D01*
X033000Y022750D02*
Y037350D01*
X033150Y037500D01*
X032750Y020000D02*
Y035500D01*
X044700Y038950D02*
Y040500D01*
X058000Y038000D02*
Y038950D01*
X057500Y037500D02*
Y039200D01*
Y037500D02*
X058000Y037000D01*
X040500Y039500D02*
X041100Y038900D01*
X040500Y038500D02*
X040900Y038100D01*
X039900Y022600D02*
X040500Y022000D01*
X035500Y036500D02*
X036000D01*
X036110Y036390D01*
X035500Y021000D02*
X036110Y021610D01*
X039900Y022600D02*
Y028300D01*
X040400Y028800D01*
X054000Y027000D02*
X054500Y026500D01*
X057500Y029500D02*
X058000Y030000D01*
X057500Y028700D02*
Y029500D01*
X056600Y027800D02*
X057500Y028700D01*
X028300Y018400D02*
X029700Y017000D01*
X035500Y019500D02*
Y020000D01*
X027900Y019900D02*
Y022500D01*
X037000Y025700D02*
X037600D01*
X040088Y018500D02*
X046600Y025012D01*
Y027300D01*
X040107Y018710D02*
X046465Y025068D01*
Y027356D01*
X048550Y027950D02*
Y030450D01*
X039900Y018710D02*
X040107D01*
X033850Y021576D02*
X034000Y021726D01*
Y022500D01*
X034500Y020600D02*
Y021000D01*
Y020600D02*
X035000Y020100D01*
X035500Y020550D02*
Y021000D01*
Y020550D02*
X035950Y020100D01*
X037500Y043500D02*
X038100Y042900D01*
X040900Y025700D02*
Y038100D01*
X022710Y016440D02*
X022750Y016400D01*
X036100Y011100D02*
Y013500D01*
X009050Y015750D02*
Y017850D01*
X008500Y018400D02*
X009050Y017850D01*
X025335Y016665D02*
X025500Y016500D01*
X025335Y016665D02*
Y017256D01*
X024510Y018081D02*
X025335Y017256D01*
X025250Y017750D02*
Y028710D01*
X034000Y039000D02*
X034500Y039500D01*
X034000Y040000D02*
X034500Y040500D01*
X034000Y041000D02*
X034500Y041500D01*
X034000Y042000D02*
X034500Y042500D01*
X030250Y027000D02*
Y039850D01*
X032900Y042500D01*
X033500D01*
X030000Y028000D02*
Y040100D01*
X033400Y043500D02*
X034500D01*
X030500Y026500D02*
Y039600D01*
X032900Y042000D01*
X034000D01*
X030750Y026000D02*
Y039350D01*
X032900Y041500D01*
X033500D01*
X032900Y041000D02*
X034000D01*
X031250Y025000D02*
Y038850D01*
X032900Y040500D01*
X033500D01*
X031490Y038590D02*
X032900Y040000D01*
X034000D01*
X032200Y023000D02*
Y037800D01*
X032900Y038500D01*
X033500D01*
X031950Y023550D02*
Y038050D01*
X032900Y039000D01*
X034000D01*
X035000Y039200D02*
Y043000D01*
X035500Y043500D01*
X032410Y037500D02*
X032910Y038000D01*
X033600D01*
X034000Y038400D01*
X032410Y027550D02*
Y037500D01*
X034000Y038400D02*
Y038600D01*
X034800Y039000D02*
X035000Y039200D01*
X034000Y038600D02*
X034400Y039000D01*
X034800D01*
X041700Y037000D02*
X041800D01*
X039700Y018500D02*
X040088D01*
X038100Y034300D02*
Y042900D01*
X023490Y030490D02*
X023500Y030500D01*
X022510Y030490D02*
X023490D01*
X022000Y031000D02*
X022510Y030490D01*
X021100Y031000D02*
X022000D01*
X013000Y043000D02*
X016600D01*
X017350Y043750D01*
X016900Y041000D02*
X017200Y041300D01*
X013000Y041000D02*
X016900D01*
X013000Y039000D02*
X017200D01*
X017500Y039300D01*
Y041500D02*
X017750Y041750D01*
X017500Y039300D02*
Y041500D01*
X017350Y043750D02*
X019239D01*
X017750Y040250D02*
X019239D01*
X017750Y041750D02*
X019239D01*
X030000Y040100D02*
X033400Y043500D01*
X029011Y040750D02*
X030000D01*
X029011Y042750D02*
X030000D01*
X029011Y043250D02*
X030000D01*
X037500Y036500D02*
Y039050D01*
X036990Y041990D02*
X037500Y042500D01*
X019239Y040750D02*
X019800D01*
X020250Y042750D02*
X021200Y041800D01*
X019239Y042750D02*
X020250D01*
X016500Y029500D02*
X017050D01*
X017500Y029950D01*
Y032700D01*
X024250Y044250D02*
X025389D01*
X053500Y033500D02*
Y037500D01*
X054000Y038000D01*
X018000Y043250D02*
X019239D01*
X044100Y036600D02*
Y037450D01*
X019000Y034200D02*
Y035450D01*
X017500Y032700D02*
X019000Y034200D01*
X019800Y040750D02*
X020060Y040490D01*
X020600Y031500D02*
X021100Y031000D01*
X034020Y023480D02*
Y038170D01*
X034350Y038500D01*
X019850Y034500D02*
X020050Y034300D01*
X020060Y037590D02*
X020400Y037250D01*
X020060Y037590D02*
Y040490D01*
X046600Y027300D02*
X046750Y027450D01*
X046465Y027356D02*
X046694Y027585D01*
X048185D01*
X048550Y027950D01*
X046750Y027450D02*
X048350D01*
X048700Y027800D01*
X056600D01*
X023700Y038300D02*
X024050Y038650D01*
Y040050D01*
X024250Y040250D01*
X025389D01*
X022700Y038300D02*
Y038900D01*
X021800Y039800D02*
X022700Y038900D01*
X021800Y043750D02*
X022050Y044000D01*
X027750D01*
X028000Y043750D01*
X029011D01*
X021800Y039800D02*
Y043750D01*
X025700Y038300D02*
Y038800D01*
X026700Y037750D02*
Y038300D01*
X026600Y037650D02*
X026700Y037750D01*
X025389Y041750D02*
X026215D01*
X025700Y038800D02*
X026650Y039750D01*
X025400Y037650D02*
X026600D01*
X028000Y034700D02*
X028350Y035050D01*
Y038850D01*
X027650Y039550D02*
X028350Y038850D01*
X027650Y039550D02*
Y041350D01*
X028050Y041750D01*
X029011D01*
X027100Y042250D02*
X029011D01*
X026650Y041800D02*
X027100Y042250D01*
X026650Y039750D02*
Y041800D01*
X024700Y034850D02*
X024850Y034700D01*
X024700Y034850D02*
Y035300D01*
X024850Y034700D02*
X028000D01*
X024250Y040500D02*
Y043450D01*
X024550Y043750D01*
X025389D01*
X021700Y035300D02*
Y035800D01*
X027850Y035900D02*
X028150Y036200D01*
X027400Y039400D02*
X028150Y038650D01*
X027400Y039400D02*
Y040250D01*
X027900D02*
X029011D01*
X028150Y036200D02*
Y038650D01*
X021700Y035800D02*
X021800Y035900D01*
X019239Y041250D02*
X019850D01*
X020200Y040900D01*
X017200Y041300D02*
Y042000D01*
X017450Y042250D01*
X019239D01*
X033850Y017950D02*
Y021576D01*
X037110Y026590D02*
Y034590D01*
Y026590D02*
X038000Y025700D01*
X031010Y014460D02*
Y025640D01*
X019850Y034500D02*
Y039300D01*
X022750Y016400D02*
Y017750D01*
X022500Y015500D02*
Y017450D01*
X031950Y017200D02*
Y023550D01*
X022100Y015250D02*
Y017200D01*
X032900Y039500D02*
X033500D01*
X031700Y017450D02*
Y024010D01*
Y038300D01*
X032900Y039500D01*
X036855Y034475D02*
Y036795D01*
Y034475D02*
X036900Y034430D01*
X030750Y014710D02*
Y026000D01*
X029100Y011100D02*
Y016500D01*
X011500Y022400D02*
X012450Y021450D01*
X036750Y025000D02*
X037000Y024750D01*
D14*
X029000Y045250D02*
X029011Y045239D01*
Y044250D02*
Y045239D01*
X022850Y044261D02*
X022861Y044250D01*
X022850Y044261D02*
Y045250D01*
X052000Y038000D02*
Y039894D01*
X044100Y012900D02*
Y013300D01*
X045100Y011100D02*
Y012900D01*
X044100Y011100D02*
Y012900D01*
X022861Y040750D02*
X023750D01*
Y041250D01*
Y042000D01*
X022861Y041250D02*
X023750D01*
Y042000D02*
Y042750D01*
X052000Y040406D02*
Y040850D01*
X016500Y032500D02*
Y034000D01*
Y023400D02*
Y025000D01*
X011500Y025400D02*
Y027000D01*
X023500Y018500D02*
Y019500D01*
Y016800D02*
Y018500D01*
X054000Y044950D02*
Y046750D01*
X039000Y043000D02*
X039500Y042500D01*
X038500D02*
X039000Y043000D01*
Y045200D01*
Y027500D02*
X039500Y027000D01*
X038950Y029550D02*
X039000Y029500D01*
Y027500D02*
Y029500D01*
X038500Y027000D02*
X039000Y027500D01*
X018550Y024200D02*
Y025500D01*
X022861Y043250D02*
X023750D01*
X022861Y042750D02*
X023750D01*
Y043250D01*
X018350Y039750D02*
X019239D01*
X024600D02*
X025389D01*
X018350Y044250D02*
X019239D01*
X045100Y012900D02*
Y013300D01*
D15*
X058050Y042050D02*
D03*
X057050D02*
D03*
X058050Y043050D02*
D03*
X057050D02*
D03*
X058050Y044050D02*
D03*
X057050D02*
D03*
X058050Y045050D02*
D03*
X057050D02*
D03*
X058050Y046050D02*
D03*
X011500Y027000D02*
D03*
X016500Y034000D02*
D03*
X022500Y022400D02*
D03*
X023500Y016800D02*
D03*
X029000Y045250D02*
D03*
X039000Y045200D02*
D03*
X016500Y044000D02*
D03*
X015500D02*
D03*
X016500Y042000D02*
D03*
X015500D02*
D03*
X016500Y040000D02*
D03*
X015500D02*
D03*
X054000Y046750D02*
D03*
X038950Y029550D02*
D03*
X061000Y044000D02*
D03*
X060000D02*
D03*
X061000Y046000D02*
D03*
X060000D02*
D03*
X013000Y044000D02*
D03*
X012000D02*
D03*
X013000Y043000D02*
D03*
X012000D02*
D03*
X013000Y042000D02*
D03*
X012000D02*
D03*
X013000Y041000D02*
D03*
X012000D02*
D03*
X013000Y040000D02*
D03*
X012000D02*
D03*
X013000Y039000D02*
D03*
X012000D02*
D03*
X013500Y031500D02*
D03*
Y030500D02*
D03*
Y029500D02*
D03*
Y028500D02*
D03*
Y027500D02*
D03*
Y026500D02*
D03*
X016500Y032500D02*
D03*
Y031500D02*
D03*
Y030500D02*
D03*
Y029500D02*
D03*
Y028500D02*
D03*
Y027500D02*
D03*
Y026500D02*
D03*
Y025000D02*
D03*
X018550Y024200D02*
D03*
X020700Y038300D02*
D03*
X021700D02*
D03*
Y035300D02*
D03*
X022700D02*
D03*
X023700D02*
D03*
X024700D02*
D03*
X025700D02*
D03*
X026700D02*
D03*
X022700Y038300D02*
D03*
X023700D02*
D03*
X024700D02*
D03*
X025700D02*
D03*
X026700D02*
D03*
X027700D02*
D03*
Y035300D02*
D03*
X018900Y038300D02*
D03*
D16*
X057050Y046050D02*
D03*
X022500Y021400D02*
D03*
X020700Y035300D02*
D03*
X018900Y037300D02*
D03*
D17*
X010500Y027000D02*
D03*
X015500Y034000D02*
D03*
X024500Y016800D02*
D03*
X028000Y045250D02*
D03*
X038000Y045200D02*
D03*
X021850Y045250D02*
D03*
X053000Y046750D02*
D03*
X037950Y029550D02*
D03*
X013500Y032500D02*
D03*
X015500Y025000D02*
D03*
X019550Y024200D02*
D03*
D18*
X038500Y042500D02*
D03*
Y043500D02*
D03*
X039500Y042500D02*
D03*
Y043500D02*
D03*
X040500Y042500D02*
D03*
Y043500D02*
D03*
X041500Y042500D02*
D03*
X040500Y041500D02*
D03*
X041500D02*
D03*
X040500Y040500D02*
D03*
X041500D02*
D03*
X040500Y039500D02*
D03*
X041500D02*
D03*
X040500Y038500D02*
D03*
X041500D02*
D03*
X040500Y037500D02*
D03*
X041500D02*
D03*
X040500Y036500D02*
D03*
X041500D02*
D03*
X040500Y035500D02*
D03*
X039500Y036500D02*
D03*
Y035500D02*
D03*
X038500Y036500D02*
D03*
Y035500D02*
D03*
X037500Y036500D02*
D03*
Y035500D02*
D03*
X036500Y036500D02*
D03*
Y035500D02*
D03*
X035500Y036500D02*
D03*
Y035500D02*
D03*
X034500Y036500D02*
D03*
Y035500D02*
D03*
X033500Y036500D02*
D03*
X034500Y037500D02*
D03*
X033500D02*
D03*
X034500Y038500D02*
D03*
X033500D02*
D03*
X034500Y039500D02*
D03*
X033500D02*
D03*
X034500Y040500D02*
D03*
X033500D02*
D03*
X034500Y041500D02*
D03*
X033500D02*
D03*
X034500Y042500D02*
D03*
X033500D02*
D03*
X034500Y043500D02*
D03*
X035500Y042500D02*
D03*
Y043500D02*
D03*
X036500Y042500D02*
D03*
Y043500D02*
D03*
X037500Y042500D02*
D03*
X038500Y027000D02*
D03*
Y028000D02*
D03*
X039500Y027000D02*
D03*
Y028000D02*
D03*
X040500Y027000D02*
D03*
Y028000D02*
D03*
X041500Y027000D02*
D03*
X040500Y026000D02*
D03*
X041500D02*
D03*
X040500Y025000D02*
D03*
X041500D02*
D03*
X040500Y024000D02*
D03*
X041500D02*
D03*
X040500Y023000D02*
D03*
X041500D02*
D03*
X040500Y022000D02*
D03*
X041500D02*
D03*
X040500Y021000D02*
D03*
X041500D02*
D03*
X040500Y020000D02*
D03*
X039500Y021000D02*
D03*
Y020000D02*
D03*
X038500Y021000D02*
D03*
Y020000D02*
D03*
X037500Y021000D02*
D03*
Y020000D02*
D03*
X036500Y021000D02*
D03*
Y020000D02*
D03*
X035500Y021000D02*
D03*
Y020000D02*
D03*
X034500Y021000D02*
D03*
Y020000D02*
D03*
X033500Y021000D02*
D03*
X034500Y022000D02*
D03*
X033500D02*
D03*
X034500Y023000D02*
D03*
X033500D02*
D03*
X034500Y024000D02*
D03*
X033500D02*
D03*
X034500Y025000D02*
D03*
X033500D02*
D03*
X034500Y026000D02*
D03*
X033500D02*
D03*
X034500Y027000D02*
D03*
X033500D02*
D03*
X034500Y028000D02*
D03*
X035500Y027000D02*
D03*
Y028000D02*
D03*
X036500Y027000D02*
D03*
Y028000D02*
D03*
X037500Y027000D02*
D03*
X054000Y037000D02*
D03*
Y038000D02*
D03*
X055000Y037000D02*
D03*
Y038000D02*
D03*
X056000Y037000D02*
D03*
Y038000D02*
D03*
X057000Y037000D02*
D03*
Y038000D02*
D03*
X058000Y037000D02*
D03*
Y038000D02*
D03*
X059000Y037000D02*
D03*
X058000Y036000D02*
D03*
X059000D02*
D03*
X058000Y035000D02*
D03*
X059000D02*
D03*
X058000Y034000D02*
D03*
X059000D02*
D03*
X058000Y033000D02*
D03*
X059000D02*
D03*
X058000Y032000D02*
D03*
X059000D02*
D03*
X058000Y031000D02*
D03*
X059000D02*
D03*
X058000Y030000D02*
D03*
X059000D02*
D03*
X058000Y029000D02*
D03*
X059000D02*
D03*
X058000Y028000D02*
D03*
X059000D02*
D03*
X058000Y027000D02*
D03*
X059000D02*
D03*
X058000Y026000D02*
D03*
X057000Y027000D02*
D03*
Y026000D02*
D03*
X056000Y027000D02*
D03*
Y026000D02*
D03*
X055000Y027000D02*
D03*
Y026000D02*
D03*
X054000Y027000D02*
D03*
Y026000D02*
D03*
X053000Y027000D02*
D03*
Y026000D02*
D03*
X052000Y027000D02*
D03*
Y026000D02*
D03*
X051000Y027000D02*
D03*
Y026000D02*
D03*
X050000Y027000D02*
D03*
Y026000D02*
D03*
X049000Y027000D02*
D03*
Y026000D02*
D03*
X048000Y027000D02*
D03*
Y026000D02*
D03*
X047000Y027000D02*
D03*
X048000Y028000D02*
D03*
X047000D02*
D03*
X048000Y029000D02*
D03*
X047000D02*
D03*
X048000Y030000D02*
D03*
X047000D02*
D03*
X048000Y031000D02*
D03*
X047000D02*
D03*
X048000Y032000D02*
D03*
X047000D02*
D03*
X048000Y033000D02*
D03*
X047000D02*
D03*
X048000Y034000D02*
D03*
X047000D02*
D03*
X048000Y035000D02*
D03*
X047000D02*
D03*
X048000Y036000D02*
D03*
X047000D02*
D03*
X048000Y037000D02*
D03*
X047000D02*
D03*
X048000Y038000D02*
D03*
X049000Y037000D02*
D03*
Y038000D02*
D03*
X050000Y037000D02*
D03*
Y038000D02*
D03*
X051000Y037000D02*
D03*
Y038000D02*
D03*
X052000Y037000D02*
D03*
Y038000D02*
D03*
X053000Y037000D02*
D03*
D19*
X037500Y043500D02*
D03*
Y028000D02*
D03*
X053000Y038000D02*
D03*
D20*
X023500Y031500D02*
D03*
Y030500D02*
D03*
Y029500D02*
D03*
Y028500D02*
D03*
Y027500D02*
D03*
Y026500D02*
D03*
Y025500D02*
D03*
Y024500D02*
D03*
Y023500D02*
D03*
Y022500D02*
D03*
Y021500D02*
D03*
Y020500D02*
D03*
Y019500D02*
D03*
Y018500D02*
D03*
X029500Y031500D02*
D03*
Y030500D02*
D03*
Y029500D02*
D03*
Y028500D02*
D03*
Y027500D02*
D03*
Y026500D02*
D03*
Y025500D02*
D03*
Y024500D02*
D03*
Y023500D02*
D03*
Y022500D02*
D03*
Y021500D02*
D03*
Y020500D02*
D03*
Y019500D02*
D03*
D21*
Y018500D02*
D03*
D22*
X008500Y025400D02*
D03*
X013500Y023400D02*
D03*
X018500Y022400D02*
D03*
X021550Y025500D02*
D03*
X051000Y044950D02*
D03*
D23*
X008500Y024400D02*
D03*
Y023400D02*
D03*
Y022400D02*
D03*
Y021400D02*
D03*
Y020400D02*
D03*
Y019400D02*
D03*
Y018400D02*
D03*
Y017400D02*
D03*
Y016400D02*
D03*
X011500Y025400D02*
D03*
Y024400D02*
D03*
Y023400D02*
D03*
Y022400D02*
D03*
Y021400D02*
D03*
Y020400D02*
D03*
Y019400D02*
D03*
Y018400D02*
D03*
Y017400D02*
D03*
Y016400D02*
D03*
X013500Y022400D02*
D03*
Y021400D02*
D03*
Y020400D02*
D03*
Y019400D02*
D03*
Y018400D02*
D03*
Y017400D02*
D03*
Y016400D02*
D03*
X016500Y023400D02*
D03*
Y022400D02*
D03*
Y021400D02*
D03*
Y020400D02*
D03*
Y019400D02*
D03*
Y018400D02*
D03*
Y017400D02*
D03*
Y016400D02*
D03*
X018500Y021400D02*
D03*
Y020400D02*
D03*
Y019400D02*
D03*
Y018400D02*
D03*
Y017400D02*
D03*
Y016400D02*
D03*
X021500Y022400D02*
D03*
Y021400D02*
D03*
Y020400D02*
D03*
Y019400D02*
D03*
Y018400D02*
D03*
Y017400D02*
D03*
Y016400D02*
D03*
X009500Y043149D02*
D03*
Y039551D02*
D03*
Y040451D02*
D03*
Y041350D02*
D03*
Y042250D02*
D03*
X010500Y043599D02*
D03*
Y042700D02*
D03*
Y041800D02*
D03*
Y040900D02*
D03*
Y040001D02*
D03*
X008500Y043599D02*
D03*
Y042700D02*
D03*
Y041800D02*
D03*
Y040900D02*
D03*
Y040001D02*
D03*
X018550Y032500D02*
D03*
Y031500D02*
D03*
Y030500D02*
D03*
Y029500D02*
D03*
Y028500D02*
D03*
Y027500D02*
D03*
Y026500D02*
D03*
Y025500D02*
D03*
X021550Y032500D02*
D03*
Y031500D02*
D03*
Y030500D02*
D03*
Y029500D02*
D03*
Y028500D02*
D03*
Y027500D02*
D03*
Y026500D02*
D03*
X051000Y041950D02*
D03*
X054000Y044950D02*
D03*
Y041950D02*
D03*
D24*
X022850Y045250D02*
D03*
D25*
X009500Y046623D02*
D03*
Y036776D02*
D03*
D26*
X032400Y015930D02*
D03*
X025790Y014990D02*
D03*
X020500Y022400D02*
D03*
Y018400D02*
D03*
X036350Y026100D02*
D03*
X035500Y037500D02*
D03*
X035850Y036150D02*
D03*
X035750Y028850D02*
D03*
X034950Y037050D02*
D03*
X007250Y022250D02*
D03*
X014850Y017300D02*
D03*
X014450Y022700D02*
D03*
X007250Y024250D02*
D03*
Y020250D02*
D03*
Y018250D02*
D03*
X043000Y031950D02*
D03*
X026000Y032100D02*
D03*
Y023500D02*
D03*
X026700Y032590D02*
D03*
X026300Y032300D02*
D03*
X027100Y015750D02*
D03*
X036850Y015450D02*
D03*
X035500Y015700D02*
D03*
X017400Y013250D02*
D03*
X012700Y016900D02*
D03*
X028300Y022000D02*
D03*
X017700Y013000D02*
D03*
X024193Y019857D02*
D03*
X024500Y020100D02*
D03*
X015750Y013050D02*
D03*
X018100Y014250D02*
D03*
X017100Y014500D02*
D03*
X016100Y014750D02*
D03*
X011900Y015000D02*
D03*
X025600Y013250D02*
D03*
X024700Y013800D02*
D03*
X023700D02*
D03*
X025100Y014050D02*
D03*
X022100Y014300D02*
D03*
X021100Y014550D02*
D03*
X020100Y014790D02*
D03*
X019100Y015000D02*
D03*
X022100Y015250D02*
D03*
X024100D02*
D03*
X012200D02*
D03*
X022500Y015500D02*
D03*
X012450D02*
D03*
X023100D02*
D03*
X020200Y020400D02*
D03*
X044000Y038450D02*
D03*
X041900Y034800D02*
D03*
X052480Y034520D02*
D03*
X037100Y034600D02*
D03*
X043250Y033220D02*
D03*
X020050Y033000D02*
D03*
X027500Y032800D02*
D03*
X042700D02*
D03*
X044100Y013300D02*
D03*
Y012900D02*
D03*
X032400Y013880D02*
D03*
X026250Y040750D02*
D03*
Y041250D02*
D03*
X026500Y042750D02*
D03*
Y043250D02*
D03*
X050000Y031600D02*
D03*
X030000Y041250D02*
D03*
X031490Y024600D02*
D03*
X031950Y023550D02*
D03*
X021200Y039550D02*
D03*
Y036900D02*
D03*
X024600Y040500D02*
D03*
X043000Y034750D02*
D03*
X045300Y035050D02*
D03*
X022700Y030700D02*
D03*
X029350Y033500D02*
D03*
X045600Y035500D02*
D03*
X045300Y041000D02*
D03*
Y026350D02*
D03*
X047335Y040450D02*
D03*
X047550Y040150D02*
D03*
X043780Y027520D02*
D03*
Y035950D02*
D03*
Y043100D02*
D03*
X035950Y015200D02*
D03*
X044300D02*
D03*
X043800Y015700D02*
D03*
X035000Y016200D02*
D03*
X043300D02*
D03*
X034500Y016700D02*
D03*
X042800D02*
D03*
X033500Y017200D02*
D03*
X042300D02*
D03*
X033850Y017950D02*
D03*
X040550D02*
D03*
X034100Y017700D02*
D03*
X041800D02*
D03*
X033000Y018200D02*
D03*
X041300D02*
D03*
X043500Y038150D02*
D03*
X044400Y038500D02*
D03*
X027950Y039750D02*
D03*
X023800D02*
D03*
X024700Y037250D02*
D03*
X027500Y027500D02*
D03*
X042700Y038000D02*
D03*
X049000Y032700D02*
D03*
X048500Y032400D02*
D03*
X026700Y026500D02*
D03*
X026300Y025500D02*
D03*
X046200Y034100D02*
D03*
X046500Y033800D02*
D03*
X022750Y016400D02*
D03*
X032410Y027550D02*
D03*
X032200Y023000D02*
D03*
X015800Y020400D02*
D03*
Y021900D02*
D03*
X015100Y022900D02*
D03*
Y018400D02*
D03*
X028100Y016200D02*
D03*
X025500Y016500D02*
D03*
X025200Y016200D02*
D03*
X015100Y017900D02*
D03*
X026100Y013700D02*
D03*
X049700Y036350D02*
D03*
X053000Y024350D02*
D03*
X046200Y029000D02*
D03*
X050000Y028550D02*
D03*
X059500Y026000D02*
D03*
X060550Y033000D02*
D03*
X052000Y040850D02*
D03*
X056000Y036350D02*
D03*
X016100Y033220D02*
D03*
X043250Y034500D02*
D03*
X030000Y028000D02*
D03*
Y015500D02*
D03*
X023700D02*
D03*
X030250Y027000D02*
D03*
Y015250D02*
D03*
X030500Y026500D02*
D03*
Y015000D02*
D03*
X031000Y014450D02*
D03*
X030750Y026000D02*
D03*
X031250Y025000D02*
D03*
Y014200D02*
D03*
X035500Y034600D02*
D03*
X038000Y019500D02*
D03*
X032750Y035500D02*
D03*
Y020000D02*
D03*
X031010Y025640D02*
D03*
X044400Y039500D02*
D03*
X044100Y036600D02*
D03*
X044700Y040500D02*
D03*
Y038950D02*
D03*
X058000D02*
D03*
X057500Y039200D02*
D03*
X045600Y041500D02*
D03*
Y026000D02*
D03*
X045000Y025500D02*
D03*
X044700Y025000D02*
D03*
X044400Y024000D02*
D03*
X044100Y023000D02*
D03*
X043500Y043500D02*
D03*
Y028000D02*
D03*
X040400Y034800D02*
D03*
X047500Y026700D02*
D03*
X035500Y019500D02*
D03*
X027900Y022500D02*
D03*
Y019900D02*
D03*
X037000Y025700D02*
D03*
X037600D02*
D03*
X039900Y018710D02*
D03*
X009050Y015750D02*
D03*
X025250Y017750D02*
D03*
X041700Y037000D02*
D03*
X045000Y039900D02*
D03*
X039700Y018500D02*
D03*
X034950Y036100D02*
D03*
X038100Y034300D02*
D03*
X020300D02*
D03*
X017400Y026000D02*
D03*
X017750Y040250D02*
D03*
X030000Y040750D02*
D03*
Y042750D02*
D03*
Y043250D02*
D03*
X037500Y039050D02*
D03*
X037200Y039450D02*
D03*
X027100Y037500D02*
D03*
X026400Y036150D02*
D03*
X020050Y026500D02*
D03*
X024250Y044250D02*
D03*
X022250Y036750D02*
D03*
X027000D02*
D03*
X053500Y033500D02*
D03*
X023750Y042000D02*
D03*
X018000Y043250D02*
D03*
X018350Y039750D02*
D03*
X024600D02*
D03*
X018350Y044250D02*
D03*
X019000Y035450D02*
D03*
X019850Y039300D02*
D03*
X020600Y031500D02*
D03*
X024250Y040500D02*
D03*
X027400Y040250D02*
D03*
X027900D02*
D03*
X045100Y012900D02*
D03*
Y013300D02*
D03*
X024700Y015250D02*
D03*
X022750Y017750D02*
D03*
X022500Y017450D02*
D03*
X022100Y017200D02*
D03*
X031950D02*
D03*
X031700Y024010D02*
D03*
Y017450D02*
D03*
X032190Y013490D02*
D03*
X031490Y013950D02*
D03*
X030750Y014710D02*
D03*
X029100Y016500D02*
D03*
X017700Y024970D02*
D03*
X025250Y028710D02*
D03*
M02*
